<svg xmlns="http://www.w3.org/2000/svg" width="34.358" height="24" viewBox="0 0 34.358 24"><path d="M7,4H1A1,1,0,0,0,0,5V27a1,1,0,0,0,1,1H7a1,1,0,0,0,1-1V5A1,1,0,0,0,7,4ZM6,10H2V8H6Z" transform="translate(0 -4)" fill="#fff"/><path d="M17,4H11a1,1,0,0,0-1,1V27a1,1,0,0,0,1,1h6a1,1,0,0,0,1-1V5A1,1,0,0,0,17,4Zm-1,6H12V8h4Z" transform="translate(0 -4)" fill="#fff"/><path d="M23.909,5.546l-5.358,2.7a1,1,0,0,0-.443,1.343l9,17.861a1,1,0,0,0,1.343.443l5.358-2.7a1,1,0,0,0,.443-1.343l-9-17.861a1,1,0,0,0-1.343-.443Z" transform="translate(0 -4)" fill="#fff"/></svg>